HIERARCHY
ROOT joint_Root
{
	OFFSET 0.0 0.0 0.0
	CHANNELS 6 Xposition Yposition Zposition Zrotation Xrotation Yrotation 
	JOINT Hips
	{
		OFFSET 4.5925 91.4895 -427.239
		CHANNELS 6 Xposition Yposition Zposition Zrotation Xrotation Yrotation 
		JOINT Spine
		{
			OFFSET 15.7357 0.0 0.0
			CHANNELS 6 Xposition Yposition Zposition Zrotation Xrotation Yrotation 
			JOINT Chest
			{
				OFFSET 8.98455 -0.406207 0.0
				CHANNELS 6 Xposition Yposition Zposition Zrotation Xrotation Yrotation 
				JOINT Neck
				{
					OFFSET 16.3773 0.0 0.0
					CHANNELS 6 Xposition Yposition Zposition Zrotation Xrotation Yrotation 
					JOINT Head
					{
						OFFSET 6.45672 0.0 0.0
						CHANNELS 6 Xposition Yposition Zposition Zrotation Xrotation Yrotation 
						End Site
						{
							OFFSET 0.0 0.0 0.0
						}
					}
				}
				JOINT Shoulder_L
				{
					OFFSET 12.9942 -0.242716 4.98039
					CHANNELS 6 Xposition Yposition Zposition Zrotation Xrotation Yrotation 
					JOINT UpperArm_L
					{
						OFFSET 5.34809 0.0 0.0
						CHANNELS 6 Xposition Yposition Zposition Zrotation Xrotation Yrotation 
						JOINT LowerArm_L
						{
							OFFSET 24.3286 1.87007e-05 0.0
							CHANNELS 6 Xposition Yposition Zposition Zrotation Xrotation Yrotation 
							JOINT Hand_L
							{
								OFFSET 22.2916 0.0 0.0
								CHANNELS 6 Xposition Yposition Zposition Zrotation Xrotation Yrotation 
								End Site
								{
									OFFSET 0.0 0.0 0.0
								}
							}
						}
					}
				}
				JOINT Shoulder_R
				{
					OFFSET 12.9945 -0.242716 -4.98039
					CHANNELS 6 Xposition Yposition Zposition Zrotation Xrotation Yrotation 
					JOINT UpperArm_R
					{
						OFFSET -5.34813 0.0 0.0
						CHANNELS 6 Xposition Yposition Zposition Zrotation Xrotation Yrotation 
						JOINT LowerArm_R
						{
							OFFSET -24.3289 0.000322201 0.0
							CHANNELS 6 Xposition Yposition Zposition Zrotation Xrotation Yrotation 
							JOINT Hand_R
							{
								OFFSET -22.2915 -0.000108084 0.0
								CHANNELS 6 Xposition Yposition Zposition Zrotation Xrotation Yrotation 
								End Site
								{
									OFFSET 0.0 0.0 0.0
								}
							}
						}
					}
				}
			}
		}
		JOINT UpperLeg_L
		{
			OFFSET -2.19248 -6.46944 0.0
			CHANNELS 6 Xposition Yposition Zposition Zrotation Xrotation Yrotation 
			JOINT LowerLeg_L
			{
				OFFSET 39.0811 0.0 -1.23785e-05
				CHANNELS 6 Xposition Yposition Zposition Zrotation Xrotation Yrotation 
				JOINT Foot_L
				{
					OFFSET 40.9854 0.0 -1.26872e-05
					CHANNELS 6 Xposition Yposition Zposition Zrotation Xrotation Yrotation 
					JOINT Toes_L
					{
						OFFSET 11.7543 0.0 0.0
						CHANNELS 6 Xposition Yposition Zposition Zrotation Xrotation Yrotation 
						End Site
						{
							OFFSET 0.0 0.0 0.0
						}
					}
				}
			}
		}
		JOINT UpperLeg_R
		{
			OFFSET -2.19251 6.46944 0.0
			CHANNELS 6 Xposition Yposition Zposition Zrotation Xrotation Yrotation 
			JOINT LowerLeg_R
			{
				OFFSET -39.0811 -0.00228153 -0.0401928
				CHANNELS 6 Xposition Yposition Zposition Zrotation Xrotation Yrotation 
				JOINT Foot_R
				{
					OFFSET -40.9854 0.0 0.0
					CHANNELS 6 Xposition Yposition Zposition Zrotation Xrotation Yrotation 
					JOINT Toes_R
					{
						OFFSET -11.7543 0.0 0.0
						CHANNELS 6 Xposition Yposition Zposition Zrotation Xrotation Yrotation 
						End Site
						{
							OFFSET 0.0 0.0 0.0
						}
					}
				}
			}
		}
	}
}
MOTION
Frames:	8
Frame Time:	0.0333333
0.000000 0.000000 0.000000 0.000000 0.000000 -0.000000 135.211000 86.255900 -158.238000 87.157200 -6.352480 3.099080 15.735700 0.000005 -0.000001 82.232900 81.171600 -79.867400 8.984550 -0.406207 -0.000000 9.787560 -2.330100 4.927680 16.377300 -0.000001 -0.000001 2.394280 0.329910 -0.592709 6.456720 -0.000001 -0.000000 -2.715340 1.702160 -1.876370 12.994200 -0.242716 4.980390 -91.252500 3.832860 -71.887000 5.348090 -0.000007 -0.000001 -62.002900 36.405500 -21.857000 24.328600 0.000019 0.000005 6.812390 6.960790 -44.711300 22.291600 -0.000001 0.000005 15.432900 5.546670 -8.595170 12.994500 -0.242716 -4.980390 88.009100 12.365500 -80.779800 -5.348130 -0.000001 -0.000004 -60.725000 31.593400 -7.685160 -24.328900 0.000322 -0.000009 -20.524500 -0.535979 -88.573000 -22.291500 -0.000108 -0.000004 23.286200 5.638760 -14.030500 -2.192480 -6.469440 -0.000000 -177.996000 -11.845400 6.346330 39.081100 -0.000007 -0.000012 0.015343 -0.019989 37.506800 40.985400 -0.000006 -0.000013 2.785090 -2.919000 -83.407500 11.754300 -0.000000 0.000003 -0.011341 -0.113412 -21.199300 -2.192510 6.469440 -0.000001 -173.855000 10.609000 157.994000 -39.081100 -0.002282 -0.040193 0.023612 -0.016578 50.857300 -40.985400 0.000008 0.000006 8.528360 -4.973950 -75.504300 -11.754300 -0.000006 -0.000006 -0.006805 -0.077976 -19.747300
0.000000 0.000000 0.000000 0.000000 0.000000 -0.000000 134.818000 85.984400 -155.071000 87.015100 -7.586680 3.841720 15.735700 0.000005 -0.000001 83.769600 81.067600 -81.111600 8.984550 -0.406207 -0.000000 10.046500 -1.873580 5.477560 16.377300 -0.000001 -0.000001 2.124400 1.347750 -0.518105 6.456720 -0.000001 -0.000000 -2.719800 3.638940 -4.028510 12.994200 -0.242716 4.980390 -91.336800 4.154590 -72.146300 5.348090 -0.000007 -0.000001 -61.246500 39.753000 -10.639900 24.328600 0.000019 0.000005 15.303100 16.819100 -43.386100 22.291600 -0.000001 0.000005 10.560500 5.572820 -9.863330 12.994500 -0.242716 -4.980390 88.125400 11.919500 -80.995700 -5.348130 -0.000001 -0.000004 -57.446100 35.694300 -21.376000 -24.328900 0.000322 -0.000009 -17.658800 1.793330 -95.624000 -22.291500 -0.000108 -0.000004 23.127500 5.632940 -13.561200 -2.192480 -6.469440 -0.000000 -176.699000 -13.434500 3.069670 39.081100 -0.000007 -0.000012 0.016791 -0.015118 47.993900 40.985400 -0.000006 -0.000013 1.038840 -1.397400 -76.364500 11.754300 -0.000000 0.000003 -0.090355 -0.419982 -34.061100 -2.192510 6.469440 -0.000001 -174.154000 9.024270 161.100000 -39.081100 -0.002282 -0.040193 0.034708 -0.025188 51.322800 -40.985400 0.000008 0.000006 8.196560 -5.208850 -77.892100 -11.754300 -0.000006 -0.000006 -0.005023 -0.061685 -19.082900
0.000000 0.000000 0.000000 0.000000 0.000000 -0.000000 134.430000 86.217500 -152.219000 87.542600 -8.569640 4.101810 15.735700 0.000005 -0.000001 85.226900 81.146100 -82.729800 8.984550 -0.406207 -0.000000 9.918580 -1.417390 5.113760 16.377300 -0.000001 -0.000001 1.812340 1.969290 0.095463 6.456720 -0.000001 -0.000000 -3.337310 4.592470 -5.118910 12.994200 -0.242716 4.980390 -91.245200 3.610030 -70.951000 5.348090 -0.000007 -0.000001 -61.145900 46.142600 2.815830 24.328600 0.000019 0.000005 15.959700 13.691800 -50.412900 22.291600 -0.000001 0.000005 9.327800 5.590680 -10.800100 12.994500 -0.242716 -4.980390 88.403800 10.274600 -81.119700 -5.348130 -0.000001 -0.000004 -53.824500 38.483700 -35.582700 -24.328900 0.000322 -0.000009 -13.385500 3.221050 -103.306000 -22.291500 -0.000108 -0.000004 22.693900 5.628920 -13.255800 -2.192480 -6.469440 -0.000000 -176.842000 -13.653700 -4.756400 39.081100 -0.000007 -0.000012 0.053953 -0.029790 61.090600 40.985400 -0.000006 -0.000013 0.526166 -1.686750 -61.782000 11.754300 -0.000000 0.000003 -0.122996 -0.498375 -37.504300 -2.192510 6.469440 -0.000001 -175.103000 8.721100 164.378000 -39.081100 -0.002282 -0.040193 0.044331 -0.034646 49.857900 -40.985400 0.000008 0.000006 8.355250 -4.565380 -79.559800 -11.754300 -0.000006 -0.000006 -0.004489 -0.056428 -18.868700
0.000000 0.000000 0.000000 0.000000 0.000000 -0.000000 134.183000 86.590000 -149.752000 88.220700 -9.862420 3.657290 15.735700 0.000005 -0.000001 92.311200 81.483100 -90.136600 8.984550 -0.406207 -0.000000 9.244580 0.711249 4.288200 16.377300 -0.000001 -0.000001 1.526340 1.401660 0.595575 6.456720 -0.000001 -0.000000 -4.122310 3.265740 -4.791630 12.994200 -0.242716 4.980390 -90.392000 1.084540 -70.112600 5.348090 -0.000007 -0.000001 -64.959000 50.708100 15.784200 24.328600 0.000019 0.000005 12.804000 8.172410 -57.984700 22.291600 -0.000001 0.000005 7.495250 5.594720 -11.042700 12.994500 -0.242716 -4.980390 88.726300 7.934870 -80.850700 -5.348130 -0.000001 -0.000004 -50.889800 37.824000 -47.074000 -24.328900 0.000322 -0.000009 -8.101040 3.173690 -111.281000 -22.291500 -0.000108 -0.000004 21.979000 5.623210 -12.843200 -2.192480 -6.469440 -0.000000 -178.089000 -12.756800 -14.287500 39.081100 -0.000007 -0.000012 0.062448 -0.019577 72.588900 40.985400 -0.000006 -0.000013 2.040150 -3.295490 -50.546800 11.754300 -0.000000 0.000003 -0.003256 -0.043468 -18.344600 -2.192510 6.469440 -0.000001 -176.244000 8.345650 166.690000 -39.081100 -0.002282 -0.040193 0.059519 -0.050612 48.027500 -40.985400 0.000008 0.000006 8.358160 -3.376850 -80.483200 -11.754300 -0.000006 -0.000006 -0.003922 -0.050629 -18.632500
0.000000 0.000000 0.000000 0.000000 0.000000 -0.000000 134.245000 87.650100 -147.196000 89.062800 -10.875700 3.150810 15.735700 0.000005 -0.000001 100.011000 81.534900 -98.335300 8.984550 -0.406207 -0.000000 8.874070 2.944100 3.119850 16.377300 -0.000001 -0.000001 0.728190 0.666681 0.915731 6.456720 -0.000001 -0.000000 -4.586290 1.278830 -4.268420 12.994200 -0.242716 4.980390 -89.280300 -1.936260 -69.609400 5.348090 -0.000007 -0.000001 -69.435200 50.946200 26.604700 24.328600 0.000019 0.000005 12.894300 5.907420 -65.794000 22.291600 -0.000001 0.000005 4.467080 5.589380 -10.722900 12.994500 -0.242716 -4.980390 89.043100 6.014300 -80.942800 -5.348130 -0.000001 -0.000004 -48.044600 35.191500 -55.485400 -24.328900 0.000322 -0.000009 -5.617740 2.971270 -117.786000 -22.291500 -0.000108 -0.000004 22.373200 5.614890 -12.276000 -2.192480 -6.469440 -0.000000 179.953000 -11.924400 -20.262200 39.081100 -0.000007 -0.000012 0.019348 -0.004304 77.438800 40.985400 -0.000006 -0.000013 5.328490 -7.110180 -54.939800 11.754300 -0.000000 0.000003 -0.003789 -0.049240 -18.579600 -2.192510 6.469440 -0.000001 -178.226000 9.638640 170.022000 -39.081100 -0.002282 -0.040193 0.054880 -0.053805 43.808600 -40.985400 0.000008 0.000006 8.259250 -0.411247 -80.062500 -11.754300 -0.000006 -0.000006 -0.003171 -0.042527 -18.302700
0.000000 0.000000 0.000000 0.000000 0.000000 -0.000000 134.526000 89.157600 -144.528000 90.421600 -11.074600 2.512760 15.735700 0.000005 -0.000001 105.976000 81.505500 -105.073000 8.984550 -0.406207 -0.000000 8.551740 4.659560 1.455470 16.377300 -0.000001 -0.000001 0.084161 -0.118731 0.871590 6.456720 -0.000001 -0.000000 -5.230660 -0.910211 -3.229510 12.994200 -0.242716 4.980390 -88.154400 -4.877720 -69.245300 5.348090 -0.000007 -0.000001 -72.465800 49.912700 33.327000 24.328600 0.000019 0.000005 13.866800 4.653630 -71.803600 22.291600 -0.000001 0.000005 3.626820 5.584560 -10.459700 12.994500 -0.242716 -4.980390 89.368500 4.071290 -81.175900 -5.348130 -0.000001 -0.000004 -46.934400 32.962700 -59.156700 -24.328900 0.000322 -0.000009 -6.203320 3.943360 -122.317000 -22.291500 -0.000108 -0.000004 22.301100 5.608680 -11.873100 -2.192480 -6.469440 -0.000000 177.341000 -10.283600 -24.880800 39.081100 -0.000007 -0.000012 -0.028775 0.006848 76.626200 40.985400 -0.000006 -0.000013 8.932690 -11.924500 -57.279100 11.754300 -0.000000 0.000003 -0.003975 -0.051189 -18.659000 -2.192510 6.469440 -0.000001 178.804000 12.288800 173.997000 -39.081100 -0.002282 -0.040193 0.040260 -0.047689 37.787900 -40.985400 0.000008 0.000006 8.038830 3.543540 -78.138400 -11.754300 -0.000006 -0.000006 -0.003931 -0.050720 -18.636200
0.000000 0.000000 0.000000 0.000000 0.000000 -0.000000 134.846000 90.684100 -141.924000 91.908200 -11.682600 0.940824 15.735700 0.000005 -0.000001 112.837000 81.622000 -112.910000 8.984550 -0.406207 -0.000000 7.717830 6.476980 -0.584226 16.377300 -0.000001 -0.000001 -0.271499 -0.898048 0.766616 6.456720 -0.000001 -0.000000 -5.890500 -2.934020 -2.021740 12.994200 -0.242716 4.980390 -87.035300 -7.596870 -68.609700 5.348090 -0.000007 -0.000001 -73.433900 47.808900 35.739300 24.328600 0.000019 0.000005 14.840800 3.596250 -76.679500 22.291600 -0.000001 0.000005 3.065340 5.577040 -10.054700 12.994500 -0.242716 -4.980390 89.749900 1.662100 -81.448500 -5.348130 -0.000001 -0.000004 -47.751200 32.654200 -58.885700 -24.328900 0.000322 -0.000009 -7.344840 5.142490 -124.812000 -22.291500 -0.000108 -0.000004 21.693100 5.595450 -11.070600 -2.192480 -6.469440 -0.000000 175.088000 -8.918150 -28.854700 39.081100 -0.000007 -0.000012 -0.032633 0.011020 71.350700 40.985400 -0.000006 -0.000013 9.192810 -15.251500 -59.005700 11.754300 -0.000000 0.000003 -0.002511 -0.034947 -17.997900 -2.192510 6.469440 -0.000001 175.978000 14.320700 176.574000 -39.081100 -0.002282 -0.040193 0.021934 -0.029832 31.993300 -40.985400 0.000008 0.000006 7.654140 7.448920 -74.793000 -11.754300 -0.000006 -0.000006 -0.007921 -0.087385 -20.131400
0.000000 0.000000 0.000000 0.000000 0.000000 -0.000000 135.077000 91.878200 -139.425000 92.544200 -12.266300 -1.013730 15.735700 0.000005 -0.000001 118.256000 81.860300 -119.131000 8.984550 -0.406207 -0.000000 6.679140 7.691160 -2.198950 16.377300 -0.000001 -0.000001 -0.267118 -1.129010 0.833067 6.456720 -0.000001 -0.000000 -6.521030 -4.439630 -1.072790 12.994200 -0.242716 4.980390 -86.016200 -9.613460 -67.364100 5.348090 -0.000007 -0.000001 -72.782500 44.848600 35.208300 24.328600 0.000019 0.000005 16.896000 2.714980 -81.131900 22.291600 -0.000001 0.000005 3.223630 5.568410 -9.608810 12.994500 -0.242716 -4.980390 90.070800 -0.536025 -82.436700 -5.348130 -0.000001 -0.000004 -49.203600 33.842900 -56.223900 -24.328900 0.000322 -0.000009 -8.455820 5.954190 -124.908000 -22.291500 -0.000108 -0.000004 21.123900 5.583010 -10.373900 -2.192480 -6.469440 -0.000000 174.254000 -7.405080 -31.356800 39.081100 -0.000007 -0.000012 -0.021544 0.011191 62.560300 40.985400 -0.000006 -0.000013 9.036040 -15.746000 -60.843200 11.754300 -0.000000 0.000003 -0.003714 -0.048444 -18.547200 -2.192510 6.469440 -0.000001 174.065000 17.611100 177.933000 -39.081100 -0.002282 -0.040193 0.011167 -0.014899 27.817700 -40.985400 0.000008 0.000006 7.615280 12.036800 -71.003100 -11.754300 -0.000006 -0.000006 -0.017677 -0.154061 -22.863400
